<svg width="30" height="30" viewBox="0 0 30 30" fill="none" xmlns="http://www.w3.org/2000/svg">
<path d="M27.6187 3.88128L1.55625 14.1188C1.30312 14.2125 1.09688 14.4094 1.00313 14.6625C0.984375 14.7094 0.965625 14.7657 0.95625 14.8219C0.946875 14.8782 0.9375 14.9344 0.9375 15C0.9375 15.0657 0.946875 15.1219 0.95625 15.1782C0.965625 15.2344 0.984375 15.2907 1.00313 15.3375C1.09688 15.5719 1.28438 15.7688 1.52812 15.8719L1.55625 15.8813L27.7781 26.1844C28.125 26.325 28.5188 26.2407 28.7813 25.9782C28.9688 25.8 29.0625 25.5563 29.0625 25.3125C29.0625 25.2 29.0438 25.0875 28.9969 24.975L25.1906 15L28.9969 5.02503C29.0438 4.91253 29.0625 4.80003 29.0625 4.68753C29.0625 4.67816 29.0625 4.67816 29.0625 4.66878C29.0625 4.15316 28.6406 3.73128 28.125 3.73128C27.9375 3.73128 27.7687 3.78753 27.6187 3.88128Z" fill="white"/>
<path d="M28.125 3.73125C28.6406 3.73125 29.0625 4.15312 29.0625 4.66875C29.0625 4.67812 29.0625 4.67813 29.0625 4.6875C29.0625 4.8 29.0438 4.9125 28.9969 5.025L25.1906 15L0.9375 15C0.9375 14.9344 0.946875 14.8781 0.95625 14.8219C0.965625 14.7656 0.984375 14.7094 1.00313 14.6625C1.09688 14.4094 1.30312 14.2125 1.55625 14.1187L27.6187 3.88125C27.7687 3.7875 27.9375 3.73125 28.125 3.73125Z" fill="white"/>
</svg>
