<svg width="30" height="30" viewBox="0 0 30 30" fill="none" xmlns="http://www.w3.org/2000/svg">
<path d="M2.38125 26.1187L28.4438 15.8812C28.6969 15.7875 28.9031 15.5906 28.9969 15.3375C29.0156 15.2906 29.0344 15.2343 29.0438 15.1781C29.0531 15.1218 29.0625 15.0656 29.0625 15C29.0625 14.9343 29.0531 14.8781 29.0438 14.8218C29.0344 14.7656 29.0156 14.7093 28.9969 14.6625C28.9031 14.4281 28.7156 14.2312 28.4719 14.1281L28.4438 14.1187L2.22188 3.81559C1.875 3.67497 1.48125 3.75934 1.21875 4.02184C1.03125 4.19997 0.9375 4.44372 0.9375 4.68747C0.9375 4.79997 0.95625 4.91247 1.00312 5.02497L4.80937 15L1.00312 24.975C0.95625 25.0875 0.9375 25.2 0.9375 25.3125C0.9375 25.3218 0.9375 25.3218 0.9375 25.3312C0.9375 25.8468 1.35937 26.2687 1.875 26.2687C2.0625 26.2687 2.23125 26.2125 2.38125 26.1187Z" fill="white"/>
<path d="M1.875 26.2688C1.35937 26.2688 0.9375 25.8469 0.9375 25.3313C0.9375 25.3219 0.9375 25.3219 0.9375 25.3125C0.9375 25.2 0.95625 25.0875 1.00312 24.975L4.80937 15H29.0625C29.0625 15.0656 29.0531 15.1219 29.0438 15.1781C29.0344 15.2344 29.0156 15.2906 28.9969 15.3375C28.9031 15.5906 28.6969 15.7875 28.4438 15.8813L2.38125 26.1188C2.23125 26.2125 2.0625 26.2688 1.875 26.2688Z" fill="white"/>
</svg>
