<svg width="70" height="70" viewBox="0 0 70 70" fill="none" xmlns="http://www.w3.org/2000/svg">
<g clip-path="url(#clip0_12_211)">
<path d="M20.1771 49.6119C24.8942 54.3302 30.3582 58.8403 32.517 56.6805C35.6096 53.5891 37.5151 50.8963 44.3306 56.3738C51.1461 61.8534 45.9117 65.5047 42.9164 68.5008C39.4601 71.9573 26.576 68.6822 13.8408 55.9483C1.10684 43.213 -2.16935 30.3291 1.28928 26.8714C4.28554 23.8752 7.93681 18.6419 13.413 25.4583C18.8914 32.2727 16.1998 34.1794 13.1074 37.2709C10.9497 39.4308 15.4587 44.8937 20.1771 49.6119ZM70 17.2233C70 26.6197 60.3755 34.2367 48.5035 34.2367C47.3167 34.2367 46.1601 34.1404 45.0258 33.9948C41.7956 37.3013 36.8613 38.9079 31.2562 39.3266C33.5515 37.0313 35.194 33.7003 35.709 30.8731C30.4375 27.7728 27.0059 22.8215 27.0059 17.2243C27.0059 7.82814 36.6306 0.210922 48.5025 0.210922C60.3745 0.210922 70 7.82699 70 17.2233ZM35.0674 17.2233C35.0674 19.0787 36.5712 20.5823 38.4265 20.5823C40.2819 20.5823 41.7855 19.0787 41.7855 17.2233C41.7855 15.368 40.2817 13.8643 38.4265 13.8643C36.5713 13.8643 35.0674 15.368 35.0674 17.2233ZM51.8625 17.2233C51.8625 15.368 50.3589 13.8643 48.5037 13.8643C46.6485 13.8643 45.1447 15.368 45.1447 17.2233C45.1447 19.0787 46.6485 20.5823 48.5037 20.5823C50.3589 20.5823 51.8625 19.0785 51.8625 17.2233ZM61.9395 17.2233C61.9395 15.368 60.4359 13.8643 58.5807 13.8643C56.7255 13.8643 55.2217 15.368 55.2217 17.2233C55.2217 19.0787 56.7255 20.5823 58.5807 20.5823C60.4359 20.5823 61.9395 19.0785 61.9395 17.2233Z" fill="#222222"/>
</g>
<defs>
<clipPath id="clip0_12_211">
<rect width="70" height="70" fill="white"/>
</clipPath>
</defs>
</svg>
