<svg width="30" height="30" viewBox="0 0 30 30" fill="none" xmlns="http://www.w3.org/2000/svg">
<g clip-path="url(#clip0_15_234)">
<path d="M0 22.8306C0.00611835 23.0019 0 23.1548 0.0305918 23.3934C0.238616 25.388 1.58465 27.1318 3.43851 27.9027C3.89739 28.1046 4.38686 28.2147 4.88245 28.2942C5.00481 28.3065 5.1333 28.3126 5.25567 28.3248C5.38415 28.3371 5.51264 28.3432 5.60441 28.3432L6.22237 28.3615L8.69418 28.4166C11.9859 28.4839 15.2898 28.4962 18.5998 28.3983C19.4197 28.4227 20.2334 28.4411 21.0533 28.4656L22.9989 28.5023L23.9717 28.5145H24.0941H24.1247H24.2164H24.2776L24.5224 28.5023C24.657 28.5023 24.9262 28.4656 25.1342 28.435C25.9785 28.2942 26.7311 27.9944 27.4225 27.5356C28.1016 27.0767 28.6828 26.4771 29.1172 25.7796C29.5516 25.0882 29.8392 24.2928 29.9432 23.4852C29.9799 23.2833 29.9861 23.0814 29.9922 22.8795C29.9922 22.7816 30.0044 22.6654 29.9983 22.5858L29.9922 22.3411L29.9738 21.3683C29.9432 20.0712 29.9004 18.7802 29.8331 17.4892C29.7597 16.0208 29.4782 14.7972 28.9276 14.9073C28.4198 15.0052 28.0465 16.0514 27.9915 17.5565C27.9425 18.9087 27.8936 20.2731 27.8446 21.6314L27.814 22.647C27.8018 22.7816 27.7957 22.9162 27.7773 23.0508C27.7467 23.1793 27.7406 23.3139 27.6978 23.4424C27.5693 23.9625 27.3307 24.4458 27.0064 24.868C26.4864 25.5471 25.7277 26.0427 24.8833 26.2385L24.608 26.2874C24.5713 26.2997 24.4979 26.3058 24.4306 26.3058L24.2287 26.318L24.1247 26.3241H24.1002H24.088H24.0696L23.8677 26.3303L23.4578 26.3364L21.818 26.367L15.2592 26.5016C13.3013 26.3241 11.3312 26.2201 9.35496 26.1589C8.36379 26.1283 7.37873 26.1039 6.38756 26.0916L5.64112 26.0855H5.45757L5.31685 26.0733C5.22507 26.061 5.1333 26.0733 5.04152 26.0488C4.67442 26.0121 4.32568 25.8897 3.99529 25.7368C3.32838 25.4309 2.77773 24.8863 2.42287 24.2439L2.3005 23.9992C2.26379 23.9135 2.23932 23.8278 2.20261 23.7422C2.1659 23.6565 2.14754 23.5648 2.12307 23.4791L2.08636 23.3445C2.07412 23.3017 2.07412 23.265 2.068 23.2282L2.04965 23.1181C2.04353 23.0814 2.03129 23.0508 2.03129 22.9774L2.01294 22.6042L2.00682 21.9189C2.0007 19.9305 2.0007 17.942 2.03741 15.9658C2.04353 15.6109 1.82939 15.0602 1.68255 14.8828C1.38275 14.5402 1.1319 14.9868 0.942226 15.6598C0.642427 16.7734 0.416048 17.9971 0.256971 19.288C0.177432 19.9305 0.116249 20.5912 0.0734202 21.2643C0.0489468 21.6008 0.0305918 21.9373 0.0122367 22.2738L0 22.5308V22.5919V22.6225V22.696V22.8306H0Z" fill="white"/>
<path d="M10.695 17.8686C11.7657 19.1412 12.7936 20.4566 13.9928 21.613L14.0234 21.6436C14.4761 22.078 15.1981 22.0658 15.6325 21.613C15.9078 21.3254 16.177 21.0256 16.434 20.7136C16.6298 20.5484 16.8317 20.3893 17.0214 20.218C18.2389 19.1412 19.4137 18.0154 20.3742 16.6939C20.6496 16.3206 20.7169 15.8495 20.3008 15.4824C19.9215 15.1459 19.4259 15.1153 19.0527 15.4029C18.3797 15.9291 17.6944 16.4491 17.1009 17.061C16.6053 17.5688 16.1342 18.095 15.6692 18.6334C15.7549 17.7768 15.8344 16.9141 15.8222 16.0575C15.7977 14.3872 15.6753 12.7169 15.5958 11.0405C16.2994 8.0425 15.8956 4.9772 16.0424 1.94862C16.0486 1.81402 15.8344 1.59987 15.6876 1.53257C15.3878 1.39797 15.1369 1.56928 14.9473 1.82625C14.3171 2.67059 14.0417 3.69847 13.9683 4.74471C13.7909 7.25935 13.5217 9.77399 13.7236 12.307C13.6991 12.619 13.6746 12.9311 13.6563 13.2431C13.5767 14.8033 13.54 16.3573 13.6502 17.9114C12.6406 16.8407 11.521 15.8679 10.5482 14.7727C10.4747 14.6932 10.1994 14.7176 10.0587 14.7849C9.77113 14.9195 9.69159 15.201 9.70383 15.4824C9.74054 16.4246 10.1443 17.2139 10.695 17.8686Z" fill="white"/>
</g>
<defs>
<clipPath id="clip0_15_234">
<rect width="30" height="30" fill="white"/>
</clipPath>
</defs>
</svg>
