<svg width="70" height="70" viewBox="0 0 70 70" fill="none" xmlns="http://www.w3.org/2000/svg">
<g clip-path="url(#clip0_11_111)">
<path d="M69.5674 19.7657C70.2041 18.7832 69.4583 17.0127 68.05 16.8991C62.4741 16.4478 56.8213 16.5724 51.1665 16.8141C52.0756 15.4422 51.8141 13.6162 51.7676 11.9658C51.7087 9.84378 51.5181 7.74074 51.0778 5.6627C50.9284 4.95911 50.2807 4.59957 49.6255 4.56789C49.5844 4.55575 49.5701 4.51017 49.5259 4.5019C41.0418 2.90271 30.574 3.31153 21.9954 4.359C21.9014 4.35354 21.8236 4.37501 21.7307 4.38487C21.7059 4.38786 21.6784 4.38944 21.6538 4.39244C21.4812 4.41391 21.3198 4.46917 21.1723 4.54977C21.0542 4.60995 20.9697 4.6902 20.8719 4.78189C20.4469 5.17117 20.2239 5.76653 20.3255 6.26862C20.0655 7.85707 20.0199 9.508 19.9335 11.1045C19.8244 13.131 19.6726 15.2078 19.8239 17.2306C19.8262 17.2609 19.8519 17.2736 19.8558 17.3029C14.3609 17.2317 8.87071 17.2396 3.43609 17.66C2.05935 17.7665 1.61375 19.0229 2.03612 19.9463C1.40415 22.0356 1.77038 24.4163 1.68503 26.5843C1.59123 28.9636 1.49813 31.325 2.3228 33.5938C2.63218 34.4461 3.48466 34.7352 4.20145 34.5211C5.58963 35.0545 7.52107 34.5659 8.95131 34.5158C12.0085 34.4088 15.1564 34.6726 18.177 34.2349C18.4128 34.2008 18.5399 34.0418 18.6979 33.9171C19.0842 33.8025 19.3945 33.4958 19.3755 33.0028C19.3232 31.6942 19.0633 30.406 20.1831 29.4254C21.2795 28.4647 23.0571 28.6813 23.8485 29.9324C24.2934 30.6358 24.1994 31.907 24.4699 32.7872C24.0078 33.4136 24.3723 34.4348 25.3154 34.52C28.6116 34.8185 31.8416 34.5885 35.1437 34.5056C38.4381 34.4229 41.6984 34.7993 44.9857 34.7354C45.1493 34.7324 45.2917 34.6842 45.433 34.6356C46.3165 34.552 47.2084 33.6519 47.0157 32.6074C46.6741 30.7548 47.8161 28.6357 49.8557 28.6378C52.3275 28.6405 52.504 30.8797 52.5224 32.7566C52.5224 32.7603 52.5258 32.7621 52.5258 32.7659C51.9945 33.564 52.5638 34.9049 53.7086 35.0177C56.2634 35.2697 58.7381 35.1766 61.2975 35.1124C63.5848 35.0552 66.0551 35.3769 68.2266 34.6189C69.3328 34.2326 69.6262 32.9931 69.0586 32.1914C69.8843 28.171 69.4572 23.8449 69.5674 19.7657ZM22.7099 17.3464C23.6273 14.4143 24.0449 10.634 23.6757 7.3849C31.3862 8.35881 40.1726 8.77413 47.7958 7.74972C47.6299 9.14881 47.5063 10.5519 47.4438 11.966C47.3661 13.7197 47.0169 15.5262 48.0218 16.9605C43.9151 17.1576 39.8122 17.3682 35.7469 17.4318C31.4203 17.4992 27.0661 17.4165 22.7099 17.3464Z" fill="#222222"/>
<path d="M69.6214 41.0162C69.4876 40.547 69.1953 40.2138 68.8337 40.006C68.7569 39.4334 68.4419 38.894 67.7549 38.7078C65.2888 38.0401 62.5779 38.4156 60.0368 38.4239C57.4526 38.4322 54.9348 38.5566 52.3846 38.9925C51.9017 39.075 51.6611 39.4381 51.5358 39.8489C51.5179 39.8895 51.5117 39.9383 51.4973 39.9821C51.4684 40.1227 51.4234 40.2432 51.4329 40.3883C51.4286 40.4523 51.4021 40.4989 51.4045 40.5678C51.4557 42.2238 51.0188 44.8409 48.748 44.5741C46.8199 44.3476 47.1569 41.5246 47.0362 40.0924C46.9869 39.5052 46.6093 39.1718 46.1799 39.037C46.1746 39.0333 46.1681 39.0319 46.1628 39.0284C46.0929 39.0078 46.038 38.9622 45.9659 38.9547C45.8582 38.907 45.7614 38.8468 45.629 38.8288C41.9323 38.3276 38.2299 37.9598 34.4962 37.8935C31.2909 37.8363 27.6163 37.4591 24.8388 39.2582C24.4401 39.5166 24.3604 39.9156 24.4762 40.2703C24.1232 41.8092 24.4933 43.6454 22.4504 44.1544C20.1419 44.7297 19.1673 42.5025 19.1893 40.6014C19.1949 40.0958 18.9605 39.7955 18.6594 39.5893C18.571 39.2827 18.394 39.0089 18.0346 38.9408C15.0295 38.3715 11.8527 38.3935 8.80027 38.4024C6.3018 38.4098 3.67644 37.8683 1.6431 39.4803C1.59664 39.5171 1.58661 39.566 1.55388 39.6081C1.2672 39.7353 1.03296 39.9701 0.96274 40.4238C-0.257019 48.3615 0.0822824 56.3711 9.69341e-05 64.395C-0.0108142 65.4481 0.900969 66.3406 1.94668 66.3416C23.7373 66.3638 45.5236 66.4829 67.3142 66.5646C68.3868 66.5686 69.0308 65.9161 69.2703 65.1213C69.385 64.9918 69.5123 64.8744 69.5512 64.6587C70.2938 60.5497 69.8834 56.426 69.5863 52.2882C69.3243 48.633 70.6083 44.4827 69.6214 41.0162Z" fill="#222222"/>
</g>
<defs>
<clipPath id="clip0_11_111">
<rect width="70" height="70" fill="white"/>
</clipPath>
</defs>
</svg>
