<svg width="54" height="54" viewBox="0 0 54 54" fill="none" xmlns="http://www.w3.org/2000/svg">
<path d="M33.5831 48.2189C31.7922 48.9432 29.8593 49.2476 27.9325 49.1088C26.0105 49.2676 24.0784 48.9624 22.2989 48.2189C22.0535 48.0206 21.8561 47.7694 21.7215 47.4841C21.5868 47.1988 21.5184 46.8867 21.5213 46.5712C21.5213 45.9537 21.4989 44.3312 21.4876 42.1726C14.2904 43.7361 12.7718 38.7032 12.7718 38.7032C12.296 37.1393 11.2764 35.7972 9.89745 34.9193C7.55078 33.3137 10.0743 33.3474 10.0743 33.3474C10.8944 33.4608 11.6777 33.76 12.3646 34.2221C13.0515 34.6842 13.6238 35.2971 14.0378 36.014C14.3884 36.6521 14.8619 37.2143 15.4311 37.6682C16.0004 38.1221 16.6539 38.4586 17.354 38.6583C18.0541 38.858 18.7869 38.9169 19.5099 38.8316C20.2329 38.7463 20.9318 38.5185 21.5662 38.1614C21.6847 36.8486 22.268 35.6213 23.2111 34.7004C17.468 34.0491 11.4273 31.8288 11.4273 21.9172C11.3895 19.3465 12.3424 16.8599 14.0883 14.9726C13.2999 12.742 13.3912 10.2948 14.3438 8.12913C14.3438 8.12913 16.5136 7.43299 21.4567 10.7818C25.6966 9.61932 30.1712 9.61932 34.4111 10.7818C39.3515 7.43299 41.5185 8.12913 41.5185 8.12913C42.4728 10.2942 42.5652 12.7418 41.7767 14.9726C43.5227 16.8597 44.4746 19.3467 44.435 21.9172C44.435 31.854 38.3859 34.0435 32.6231 34.6835C33.2404 35.3102 33.7164 36.0618 34.019 36.8879C34.3216 37.7139 34.4438 38.5951 34.3774 39.4723C34.3774 42.9305 34.3466 45.7235 34.3466 46.5712C34.3627 46.8872 34.3016 47.2024 34.1686 47.4895C34.0355 47.7766 33.8346 48.027 33.5831 48.2189Z" fill="white"/>
</svg>
