<svg width="18" height="14" viewBox="0 0 18 14" fill="none" xmlns="http://www.w3.org/2000/svg">
<path d="M7.38115 9.90001C7.27525 9.78121 7.17355 9.65611 7.07605 9.52591C6.50605 8.86951 6.12955 7.91731 6.02935 6.86191C6.00835 6.63541 5.99995 6.46441 5.99995 6.30001C5.99995 6.13561 6.00835 5.96461 6.02695 5.76181C6.12985 4.68271 6.50635 3.73051 7.08985 3.05701C7.18105 2.93491 7.27855 2.81521 7.38115 2.70001H5.09995C3.77665 2.70001 2.69995 4.31491 2.69995 6.30001C2.69995 8.28511 3.77665 9.90001 5.09995 9.90001H7.38115Z" fill="#222222"/>
<path d="M12.5204 6.00721C12.4967 5.96221 12.4649 5.92231 12.4307 5.88481L12.3527 5.82301C12.3068 5.78641 12.2549 5.75851 12.2009 5.73751C12.1916 5.73421 12.1823 5.73181 12.173 5.72881C12.1409 5.71801 12.1076 5.71321 12.0743 5.70781C12.0497 5.70451 12.0254 5.70001 11.9999 5.70001C11.669 5.70001 11.3999 5.96911 11.3999 6.30001C11.3999 6.58711 11.603 6.82741 11.873 6.88591C11.8769 6.88681 11.8808 6.88771 11.8844 6.88831C11.9219 6.89581 11.9603 6.90001 11.9999 6.90001C12.0614 6.90001 12.1196 6.88801 12.1754 6.87091L12.1994 6.86221C12.3746 6.80011 12.506 6.66151 12.5648 6.49381C12.5669 6.48751 12.5687 6.48121 12.5708 6.47491L12.5849 6.36661C12.6011 6.24121 12.5774 6.11761 12.5222 6.01051C12.5216 6.00961 12.521 6.00841 12.5204 6.00721Z" fill="#222222"/>
<path d="M13.4881 2.70001H10.5121C9.0673 3.29791 8.1001 4.73731 8.1001 6.30001C8.1001 7.86271 9.0673 9.30211 10.5121 9.90001H13.4881C14.9329 9.30211 15.9001 7.86271 15.9001 6.30001C15.9001 4.73731 14.9329 3.29791 13.4881 2.70001ZM14.6275 8.29561L14.5234 8.41651L14.365 8.39761C13.9453 8.34811 13.5007 8.17381 13.1182 7.98391C13.234 8.18551 13.3726 8.35051 13.504 8.46121C13.6432 8.57881 13.7089 8.76151 13.6747 8.93851C13.6414 9.11431 13.5193 9.25351 13.3492 9.31051C12.9409 9.44761 12.3604 9.61081 11.9158 9.61081C11.8369 9.61081 11.7625 9.60571 11.6944 9.59521L11.5369 9.57091L11.4688 9.42691C11.2798 9.02671 11.1916 8.53021 11.1526 8.08951C11.0233 8.30761 10.9453 8.52961 10.9159 8.71231C10.8766 8.95681 10.6708 9.13471 10.4257 9.13471H10.4254C10.3099 9.13471 10.1974 9.09271 10.1083 9.01651C9.7048 8.67271 9.1873 8.17321 9.0118 7.74511L8.9515 7.59751L9.04 7.46491C9.3244 7.03891 9.7891 6.66181 10.1899 6.38761C10.0882 6.37141 9.9853 6.36151 9.8812 6.36151C9.6931 6.36151 9.5101 6.38881 9.3517 6.43981C9.301 6.45631 9.2482 6.46441 9.1954 6.46441C9.0418 6.46441 8.8996 6.39571 8.8045 6.27571C8.7115 6.15781 8.6785 6.00601 8.7136 5.85871C8.8369 5.34241 9.0475 4.65421 9.349 4.30411L9.4531 4.18321L9.6115 4.20211C10.0312 4.25161 10.4758 4.42591 10.8583 4.61581C10.7425 4.41421 10.6039 4.24921 10.4725 4.13851C10.3333 4.02091 10.2676 3.83791 10.3015 3.66091C10.3351 3.48511 10.4572 3.34621 10.6276 3.28921C11.1076 3.12781 11.8276 2.93341 12.2824 3.00451L12.4399 3.02881L12.508 3.17281C12.697 3.57331 12.7849 4.06981 12.8239 4.51051C12.9535 4.29211 13.0312 4.07041 13.0606 3.88771C13.1002 3.64261 13.3063 3.46501 13.5511 3.46501C13.6666 3.46501 13.7791 3.50701 13.8682 3.58321C14.272 3.92701 14.7898 4.42711 14.9647 4.85461L15.025 5.00221L14.9365 5.13481C14.6521 5.56081 14.1877 5.93791 13.7866 6.21211C13.8883 6.22831 13.9915 6.23821 14.0953 6.23821C14.2834 6.23821 14.4661 6.21121 14.6245 6.16021C14.8222 6.09631 15.0442 6.16321 15.172 6.32431C15.265 6.44221 15.298 6.59401 15.2629 6.74131C15.1396 7.25731 14.929 7.94551 14.6275 8.29561Z" fill="#222222"/>
<path d="M1.5 1.2V0.3C1.5 0.1341 1.3659 0 1.2 0H0.3C0.1341 0 0 0.1341 0 0.3C0 0.4659 0.1341 0.6 0.3 0.6H0.9V1.2V2.1H0V3.9H0.9V4.8H0.6C0.4341 4.8 0.3 4.9341 0.3 5.1C0.3 5.2659 0.4341 5.4 0.6 5.4H0.9V5.7H0V10.2H0.9V10.5H0.6C0.4341 10.5 0.3 10.6341 0.3 10.8C0.3 10.9659 0.4341 11.1 0.6 11.1H0.9V11.4V12.9C0.9 13.0659 1.0341 13.2 1.2 13.2C1.3659 13.2 1.5 13.0659 1.5 12.9V11.4H3.3V12.6H11.1V11.4H18V1.2H1.5ZM0.9 9.6H0.6V6.3H0.9V9.6ZM0.9 3.3H0.6V2.7H0.9V3.3ZM2.1 2.1C2.2656 2.1 2.4 2.2344 2.4 2.4C2.4 2.5656 2.2656 2.7 2.1 2.7C1.9344 2.7 1.8 2.5656 1.8 2.4C1.8 2.2344 1.9344 2.1 2.1 2.1ZM2.1 10.5C1.9344 10.5 1.8 10.3656 1.8 10.2C1.8 10.0344 1.9344 9.9 2.1 9.9C2.2656 9.9 2.4 10.0344 2.4 10.2C2.4 10.3656 2.2656 10.5 2.1 10.5ZM2.1 6.3C2.1 3.984 3.4458 2.1 5.1 2.1H8.9388L8.3103 2.6295C8.0373 2.8596 7.7838 3.1299 7.5567 3.4335C7.0407 4.0302 6.7152 4.863 6.6264 5.7951C6.6078 6.0006 6.6 6.1542 6.6 6.3C6.6 6.4458 6.6078 6.5994 6.6246 6.7836C6.7155 7.7373 7.041 8.5698 7.5435 9.1497C7.7841 9.4701 8.0373 9.7407 8.3106 9.9705L8.9388 10.5H5.1C3.4458 10.5 2.1 8.616 2.1 6.3ZM10.5 12H10.2V11.7H9.6V12H9.3V11.7H8.7V12H8.4V11.7H7.8V12H7.5V11.7H6.9V12H6.6V11.7H6V12H5.7V11.7H5.1V12H4.8V11.7H4.2V12H3.9V11.4H10.5V12ZM13.6569 10.479L13.6038 10.5H10.3962L10.3428 10.479C8.6427 9.8046 7.5 8.1252 7.5 6.3C7.5 4.4748 8.6427 2.7954 10.3431 2.121L10.3962 2.1H13.6035L13.6569 2.121C15.3573 2.7954 16.5 4.4748 16.5 6.3C16.5 8.1252 15.3573 9.8046 13.6569 10.479ZM16.8 10.5C16.6344 10.5 16.5 10.3656 16.5 10.2C16.5 10.0344 16.6344 9.9 16.8 9.9C16.9656 9.9 17.1 10.0344 17.1 10.2C17.1 10.3656 16.9656 10.5 16.8 10.5ZM16.8 2.7C16.6344 2.7 16.5 2.5656 16.5 2.4C16.5 2.2344 16.6344 2.1 16.8 2.1C16.9656 2.1 17.1 2.2344 17.1 2.4C17.1 2.5656 16.9656 2.7 16.8 2.7Z" fill="#222222"/>
</svg>
