<svg width="30" height="30" viewBox="0 0 30 30" fill="none" xmlns="http://www.w3.org/2000/svg">
<g clip-path="url(#clip0_22_473)">
<path d="M15.0006 30C23.2845 30 30 23.2846 30 15.0006C30 6.71671 23.2845 0.00126648 15.0006 0.00126648C6.71667 0.00126648 0.0012207 6.71671 0.0012207 15.0006C0.0012207 23.2846 6.71667 30 15.0006 30Z" fill="white"/>
<path d="M15.0006 30C23.2845 30 30 23.2846 30 15.0006C30 6.71671 23.2845 0.00126648 15.0006 0.00126648C6.71667 0.00126648 0.0012207 6.71671 0.0012207 15.0006C0.0012207 23.2846 6.71667 30 15.0006 30Z" fill="white"/>
<path d="M29.1428 9.99877C29.1411 9.99402 29.1397 9.99003 29.138 9.98572C27.2182 4.5727 22.2803 0.590202 16.3472 0.061554C18.6429 1.32013 19.3133 5.30763 19.9008 9.99871C20.302 13.203 20.3046 16.7336 19.9084 19.9418C19.326 24.6583 18.6526 28.6739 16.3472 29.9377C22.291 29.4081 27.236 25.4119 29.1483 19.9844C29.1533 19.97 29.1575 19.9557 29.1627 19.9418C29.7027 18.3941 29.9999 16.7319 29.9999 15.0001C29.9999 13.2456 29.6961 11.5631 29.1428 9.99877Z" fill="#EFECEC"/>
<path d="M20.6729 9.99878C20.0858 5.30763 18.643 1.3202 16.347 0.0616239C15.903 0.0222935 15.4539 0 14.9997 0C8.47446 0 2.9252 4.1675 0.861848 9.98573C0.860201 9.98997 0.858744 9.99403 0.857098 9.99878C0.303876 11.5631 0 13.2456 0 15.0001C0 16.7322 0.297226 18.3941 0.837211 19.9418C0.842214 19.9558 0.846711 19.97 0.851651 19.9844C2.90696 25.8176 8.46375 29.9997 14.9996 29.9997C15.4539 29.9997 15.903 29.9775 16.347 29.9377C18.6524 28.6739 20.0981 24.6582 20.6805 19.9418C21.0768 16.7333 21.0742 13.203 20.6729 9.99878Z" fill="#F3F2F2"/>
<path d="M15.0007 20.5265C18.0526 20.5265 20.5266 18.0525 20.5266 15.0006C20.5266 11.9488 18.0526 9.47475 15.0007 9.47475C11.9489 9.47475 9.47485 11.9488 9.47485 15.0006C9.47485 18.0525 11.9489 20.5265 15.0007 20.5265Z" fill="#EC1C24"/>
</g>
<defs>
<clipPath id="clip0_22_473">
<rect width="30" height="30" fill="white"/>
</clipPath>
</defs>
</svg>
