<svg width="70" height="70" viewBox="0 0 70 70" fill="none" xmlns="http://www.w3.org/2000/svg">
<path d="M35 0C22.2327 0 11.8457 10.387 11.8457 23.1542C11.8457 28.2963 15.1293 36.6799 21.8837 48.7839C26.6615 57.3449 31.3606 64.4832 31.558 64.7828L35 70L38.4417 64.783C38.6393 64.4832 43.3387 57.3451 48.1159 48.784C54.8706 36.6799 58.1539 28.2965 58.1539 23.1543C58.1541 10.387 47.7671 0 35 0ZM35 35C28.3715 35 22.9978 29.6265 22.9978 22.9978C22.9978 16.3692 28.3715 10.9956 35 10.9956C41.6284 10.9956 47.0021 16.3692 47.0021 22.9978C47.0021 29.6265 41.6283 35 35 35Z" fill="#222222"/>
</svg>
