<svg width="15" height="14" viewBox="0 0 15 14" fill="none" xmlns="http://www.w3.org/2000/svg">
<path d="M14.625 1.6875V9.5625C14.6245 10.0099 14.4465 10.4388 14.1302 10.7552C13.8138 11.0715 13.3849 11.2495 12.9375 11.25H1.6875C1.2401 11.2495 0.811179 11.0715 0.494823 10.7552C0.178466 10.4388 0.000511762 10.0099 0 9.5625V1.6875C0.000511762 1.2401 0.178466 0.81118 0.494823 0.494823C0.811179 0.178466 1.2401 0.000511762 1.6875 0H12.9375C13.3849 0.000511762 13.8138 0.178466 14.1302 0.494823C14.4465 0.81118 14.6245 1.2401 14.625 1.6875ZM9.5625 12.375H5.0625C4.91332 12.375 4.77024 12.4343 4.66475 12.5398C4.55926 12.6452 4.5 12.7883 4.5 12.9375C4.5 13.0867 4.55926 13.2298 4.66475 13.3352C4.77024 13.4407 4.91332 13.5 5.0625 13.5H9.5625C9.71168 13.5 9.85476 13.4407 9.96025 13.3352C10.0657 13.2298 10.125 13.0867 10.125 12.9375C10.125 12.7883 10.0657 12.6452 9.96025 12.5398C9.85476 12.4343 9.71168 12.375 9.5625 12.375Z" fill="#222222"/>
</svg>
