<svg width="18" height="18" viewBox="0 0 18 18" fill="none" xmlns="http://www.w3.org/2000/svg">
<g clip-path="url(#clip0_79_67)">
<path d="M17.25 2.24998H15V1.49999C15 1.08599 14.6648 0.75 14.2501 0.75C13.8353 0.75 13.5001 1.08599 13.5001 1.49999V2.24998H12.7501V1.49999C12.7501 1.08599 12.4148 0.75 12.0001 0.75C11.5853 0.75 11.2501 1.08599 11.2501 1.49999V2.24998H10.5001V1.49999C10.5001 1.08599 10.1649 0.75 9.75011 0.75C9.33537 0.75 9.00012 1.08599 9.00012 1.49999V2.24998H7.50011V8.99999C7.50011 9.41399 7.16486 9.74998 6.75012 9.74998C6.33538 9.74998 6.00013 9.41399 6.00013 8.99999V2.24998H4.50001V7.49998C4.50001 7.91398 4.16476 8.24997 3.75002 8.24997C3.33528 8.24997 3.00003 7.91398 3.00003 7.49998V2.24998H0.750025C0.335251 2.24998 0 2.586 0 3V16.5C0 16.914 0.335251 17.25 0.74999 17.25H17.25C17.6647 17.25 18 16.914 18 16.5V3C18 2.586 17.6648 2.24998 17.25 2.24998ZM13.5 14.25H10.5C10.0853 14.25 9.75004 13.914 9.75004 13.5C9.75004 13.086 10.0853 12.75 10.5 12.75H13.5C13.9148 12.75 14.25 13.086 14.25 13.5C14.25 13.914 13.9148 14.25 13.5 14.25ZM14.2501 11.25H9.75004C9.33527 11.25 9.00002 10.914 9.00002 10.5V6.00003C9.00002 5.58603 9.33527 5.25004 9.75001 5.25004H14.25C14.6648 5.25004 15 5.58603 15 6.00003V10.5H15C15 10.914 14.6648 11.25 14.2501 11.25Z" fill="#222222"/>
<path d="M13.5001 6.74997H10.5002V9.74986H13.5001V6.74997Z" fill="#222222"/>
</g>
<defs>
<clipPath id="clip0_79_67">
<rect width="18" height="18" fill="white"/>
</clipPath>
</defs>
</svg>
