<svg width="18" height="18" viewBox="0 0 18 18" fill="none" xmlns="http://www.w3.org/2000/svg">
<g clip-path="url(#clip0_79_89)">
<path d="M18 16.9531V1.0469C17.7069 1.2084 17.3314 1.1656 17.0829 0.9171C16.8344 0.6686 16.7915 0.2931 16.9531 0H3.1905V0.264C3.1905 0.4984 3.0006 0.6883 2.7662 0.6883C2.5319 0.6883 2.342 0.4984 2.342 0.264V0H1.0469C1.2085 0.2931 1.1657 0.6686 0.9171 0.9171C0.6685 1.1655 0.2931 1.2084 0 1.0469V16.9532C0.2931 16.7917 0.6685 16.8345 0.9171 17.083C1.1656 17.3315 1.2084 17.707 1.0469 18.0001H2.342V17.7361C2.342 17.5017 2.5319 17.3118 2.7662 17.3118C3.0006 17.3118 3.1905 17.5017 3.1905 17.7361V18H16.9531C16.7915 17.7069 16.8343 17.3314 17.0829 17.0829C17.3314 16.8345 17.7069 16.7916 18 16.9531ZM15.7948 13.6295C15.7948 14.8234 14.8234 15.7948 13.6295 15.7948H11.3897C11.0798 15.7948 10.8287 15.5436 10.8287 15.2338C10.8287 14.9239 11.0799 14.6728 11.3897 14.6728H13.6295C14.2048 14.6728 14.6728 14.2048 14.6728 13.6295V4.3705C14.6728 3.7952 14.2048 3.3272 13.6295 3.3272H4.3703C3.7952 3.3272 3.3272 3.7952 3.3272 4.3705V13.6295C3.3272 14.2048 3.7951 14.6728 4.3703 14.6728H6.6103C6.9202 14.6728 7.1713 14.924 7.1713 15.2338C7.1713 15.5437 6.9201 15.7948 6.6103 15.7948H4.3703C3.1765 15.7948 2.2052 14.8234 2.2052 13.6295V4.3705C2.2052 3.1765 3.1765 2.2052 4.3703 2.2052H13.6295C14.8234 2.2052 15.7948 3.1766 15.7948 4.3705V13.6295ZM5.2521 13.4156C4.884 13.4156 4.5843 13.1162 4.5843 12.7475V5.2524C4.5843 4.8837 4.884 4.5843 5.2521 4.5843H12.7475C13.1162 4.5843 13.4156 4.8837 13.4156 5.2524V12.7475C13.4156 13.1161 13.1162 13.4156 12.7475 13.4156H5.2521ZM7.6316 7.8624V8.2863H6.9834V7.8187C6.9834 7.5071 6.8463 7.3885 6.628 7.3885C6.4099 7.3885 6.2726 7.5071 6.2726 7.8187V10.175C6.2726 10.4865 6.4099 10.5987 6.628 10.5987C6.8463 10.5987 6.9834 10.4865 6.9834 10.175V9.5517H7.6316V10.1312C7.6316 10.8295 7.2826 11.2285 6.6093 11.2285C5.936 11.2285 5.587 10.8296 5.587 10.1312V7.8624C5.587 7.1642 5.936 6.7652 6.6093 6.7652C7.2826 6.7652 7.6316 7.1642 7.6316 7.8624ZM9.0592 6.8151H8.0493V11.1786H8.7349V9.5392H9.0591C9.7447 9.5392 10.0814 9.1589 10.0814 8.4609V7.8935C10.0814 7.1954 9.7448 6.8151 9.0592 6.8151ZM9.3958 8.5045C9.3958 8.8161 9.2772 8.9158 9.0592 8.9158H8.735V7.4385H9.0592C9.2773 7.4385 9.3958 7.5382 9.3958 7.8498V8.5045ZM11.7646 6.8151H12.4129V10.1376C12.4129 10.8358 12.0638 11.2348 11.3905 11.2348C10.7172 11.2348 10.3681 10.8359 10.3681 10.1376V6.8151H11.0538V10.1812C11.0538 10.4928 11.1909 10.605 11.4091 10.605C11.6274 10.605 11.7645 10.4928 11.7645 10.1812V6.8151H11.7646Z" fill="#222222"/>
</g>
<defs>
<clipPath id="clip0_79_89">
<rect width="18" height="18" fill="white"/>
</clipPath>
</defs>
</svg>
