<svg width="70" height="70" viewBox="0 0 70 70" fill="none" xmlns="http://www.w3.org/2000/svg">
<path fill-rule="evenodd" clip-rule="evenodd" d="M48.3411 51.4418C49.074 51.4418 49.807 51.1741 50.3711 50.6388L64.6964 36.9847C65.8123 35.91 65.8123 34.1847 64.6964 33.1182L50.3711 19.4559C49.2511 18.3894 47.4393 18.3894 46.3193 19.4559C45.2035 20.5306 45.2035 22.26 46.3193 23.3182L58.6187 35.0535L46.3193 46.7806C45.2035 47.8471 45.2035 49.5806 46.3193 50.6429C46.8793 51.1741 47.6123 51.4418 48.3411 51.4418Z" fill="#222222"/>
<path fill-rule="evenodd" clip-rule="evenodd" d="M17.71 50.9888C16.9688 50.9888 16.2318 50.7335 15.6635 50.2065L1.18178 36.75C0.0494313 35.7 0.0494313 33.9953 1.18178 32.9494L15.6635 19.4929C16.7918 18.4388 18.6283 18.4388 19.7606 19.4929C20.8847 20.5471 20.8847 22.2476 19.7606 23.2976L7.32531 34.8476L19.7606 46.3935C20.8847 47.4477 20.8847 49.1524 19.7606 50.2065C19.1924 50.7294 18.4471 50.9888 17.71 50.9888Z" fill="#222222"/>
<path fill-rule="evenodd" clip-rule="evenodd" d="M27.5266 63.3665C28.5272 63.1318 29.3631 62.3412 29.5978 61.2665L40.9048 9.82059C41.226 8.36294 40.3242 6.95059 38.8954 6.65824C37.4542 6.37 36.0419 7.31706 35.7248 8.77471L24.4178 60.2206C24.0966 61.67 25.0025 63.0824 26.4272 63.3747C26.806 63.4488 27.1807 63.4406 27.5266 63.3665Z" fill="#222222"/>
</svg>
