<svg width="18" height="18" viewBox="0 0 18 18" fill="none" xmlns="http://www.w3.org/2000/svg">
<path d="M13.5 5.25234H15.75V1.50117C15.75 0.791016 15.198 0 14.4035 0H11.25C10.8352 0 10.5012 0.3375 10.4977 0.748828C10.4977 0.755859 10.4801 1.49766 9.74883 1.49766C9.26367 1.49766 9 1.37812 9 0.748828C9 0.3375 8.66602 0 8.25117 0H6.75V18H8.25469C8.66953 18 9.00352 17.666 9.00352 17.2512C9.00352 16.6219 9.26719 16.5023 9.75234 16.5023C10.4801 16.5023 10.5012 17.2441 10.5012 17.2512C10.5012 17.6625 10.8352 18 11.25 18H14.4035C15.198 18 15.75 17.209 15.75 16.4988V12.7477H13.5C13.0852 12.7477 12.7512 12.4137 12.7512 11.9988C12.7512 11.5875 13.0852 11.25 13.5 11.25H15.75V9.74883H11.9988C11.584 9.74883 11.25 9.41133 11.25 9C11.25 8.58867 11.584 8.25117 11.9988 8.25117H15.75V6.75H13.5C13.0852 6.75 12.7512 6.41602 12.7512 6.00117C12.7512 5.58633 13.0852 5.24883 13.5 5.25234ZM9.74883 12.7512H8.24766V11.25H9.74883V12.7512ZM9.74883 9.75234H8.24766V8.25117H9.74883V9.75234ZM9.74883 6.75H8.24766V5.24883H9.74883V6.75Z" fill="#222222"/>
<path d="M2.99883 0C2.58398 0 2.25 0.3375 2.25 0.748828V17.2512C2.25 17.6625 2.58398 18 2.99883 18H5.24883V0H2.99883Z" fill="#222222"/>
</svg>
