<svg width="30" height="30" viewBox="0 0 30 30" fill="none" xmlns="http://www.w3.org/2000/svg">
<g clip-path="url(#clip0_22_394)">
<path d="M15 13.525C17.4611 13.525 19.4562 11.5299 19.4562 9.06877C19.4562 6.60765 17.4611 4.61252 15 4.61252C12.5388 4.61252 10.5437 6.60765 10.5437 9.06877C10.5437 11.5299 12.5388 13.525 15 13.525Z" fill="#222222"/>
<path d="M20.6626 14.9063L19.6126 14.5938L15 19.2125L10.3875 14.5938L9.33748 14.9063C6.61872 15.725 4.7937 18.175 4.7937 21.0125V26.2501H25.2062V21.0125C25.2063 18.175 23.3814 15.725 20.6626 14.9063Z" fill="#222222"/>
<path d="M20.2687 3.75C19.5133 3.75 18.7893 3.95363 18.1538 4.31735C19.6905 5.34091 20.7061 7.08779 20.7061 9.06852C20.7061 10.2426 20.349 11.3344 19.7388 12.2426C19.9141 12.2647 20.0905 12.2813 20.2687 12.2813C22.6249 12.2813 24.5374 10.3688 24.5374 8.01252C24.5374 5.66242 22.6249 3.75 20.2687 3.75Z" fill="#222222"/>
<path d="M25.6626 13.5313L24.6439 13.2313L23.1487 14.7265C25.1886 16.1177 26.4564 18.4318 26.4564 21.0125V24.375H30.0002V19.3625C30.0001 16.6563 28.2564 14.3125 25.6626 13.5313Z" fill="#222222"/>
<path d="M11.8462 4.31735C11.2108 3.95363 10.4868 3.75 9.73138 3.75C7.37513 3.75 5.46265 5.66242 5.46265 8.01252C5.46265 10.3688 7.37513 12.2813 9.73138 12.2813C9.90944 12.2813 10.086 12.2646 10.2612 12.2426C9.65096 11.3345 9.2939 10.2426 9.2939 9.06852C9.2939 7.08779 10.3095 5.34091 11.8462 4.31735Z" fill="#222222"/>
<path d="M5.35628 13.2313L4.34377 13.5313H4.33748C1.74377 14.3125 0 16.6563 0 19.3625V24.375H3.54371V21.0125C3.54371 18.4312 4.81223 16.1167 6.85109 14.7261L5.35628 13.2313Z" fill="#222222"/>
</g>
<defs>
<clipPath id="clip0_22_394">
<rect width="30" height="30" fill="white"/>
</clipPath>
</defs>
</svg>
