<svg width="30" height="30" viewBox="0 0 30 30" fill="none" xmlns="http://www.w3.org/2000/svg">
<path d="M25.0749 13.9024H24.3182C23.7686 8.75114 19.3969 4.72534 14.1022 4.72534C8.43674 4.72534 3.82764 9.3345 3.82764 15C3.82764 20.6655 8.43674 25.2746 14.1022 25.2746C19.3969 25.2746 23.7686 21.2488 24.3182 16.0976H25.0749C25.6811 16.0976 26.1725 15.6061 26.1725 15C26.1725 14.3938 25.6811 13.9024 25.0749 13.9024ZM15.1994 15C15.1994 15.2911 15.0838 15.5703 14.8779 15.7761L12.7174 17.9366C12.2888 18.3651 11.5938 18.3653 11.1652 17.9366C10.7366 17.508 10.7366 16.8131 11.1652 16.3844L13.0043 14.5454V10.5714C13.0043 9.9652 13.4957 9.47378 14.1019 9.47378C14.708 9.47378 15.1995 9.9652 15.1995 10.5714V15H15.1994Z" fill="#222222"/>
<path d="M20.2229 25.0126C16.4724 27.3138 11.7343 27.3152 7.98154 25.0126C7.49275 24.7128 6.86475 25.0608 6.86475 25.6342V28.9024C6.86475 29.5086 7.35617 30 7.96232 30H20.2421C20.8482 30 21.3396 29.5086 21.3396 28.9024V25.6342C21.3397 25.0608 20.7116 24.7127 20.2229 25.0126Z" fill="#222222"/>
<path d="M7.9816 4.98738C11.7321 2.68623 16.4702 2.68494 20.2229 4.98738C20.7117 5.28727 21.3397 4.93916 21.3397 4.36582V1.09758C21.3397 0.491426 20.8483 0 20.2422 0H7.96232C7.35617 0 6.86475 0.491426 6.86475 1.09758V4.36582C6.8648 4.93922 7.49287 5.28727 7.9816 4.98738Z" fill="#222222"/>
</svg>
