<svg width="30" height="30" viewBox="0 0 30 30" fill="none" xmlns="http://www.w3.org/2000/svg">
<path d="M23.5503 22.1202C20.8806 21.4435 18.7153 19.918 18.7153 19.918L17.0299 25.2635L16.71 26.2723L16.7039 26.26L16.427 27.115L15.5351 24.5868C17.7926 21.4435 14.9384 21.5604 14.9384 21.5604C14.9384 21.5604 12.0842 21.4374 14.3417 24.5807L13.4437 27.1273L13.1668 26.2662L11.1554 19.9118C11.1554 19.9118 8.9901 21.4374 6.32043 22.114C4.99174 22.4523 4.50579 23.5903 4.35815 24.6484C6.75102 27.9393 10.6079 30 14.9015 30C15.8857 30 16.8699 29.8893 17.8419 29.6678C20.9606 28.9543 23.6487 27.1581 25.5064 24.5868C25.3465 23.5473 24.8544 22.4462 23.5503 22.1202Z" fill="#222222"/>
<path d="M26.14 9.87902L24.0609 9.5284C23.9871 9.5161 23.9256 9.46073 23.9071 9.38692C23.7041 8.64261 23.4088 7.9229 23.0152 7.24011C22.9783 7.17244 22.9783 7.09247 23.0275 7.03096L24.2516 5.31474C24.4915 4.97642 24.4546 4.52122 24.1593 4.22596L23.3781 3.44474L22.5969 2.66352C22.3016 2.39286 21.8403 2.36211 21.5142 2.59586L19.798 3.81997C19.7365 3.86303 19.6504 3.86918 19.5889 3.83227C18.9061 3.43859 18.1864 3.14333 17.4421 2.94033C17.3682 2.92188 17.3129 2.86036 17.3006 2.78655L16.95 0.707402C16.8823 0.301415 16.5255 0.00615132 16.1195 0H15.0184H13.9174C13.6898 0 13.4745 0.0922698 13.3207 0.252204C13.2038 0.375231 13.1177 0.529014 13.0869 0.707402L12.724 2.76194C12.7117 2.83576 12.6563 2.89727 12.5825 2.91573C11.8198 3.11872 11.0816 3.42629 10.3865 3.83843C10.3188 3.87533 10.2327 3.87533 10.1712 3.83227L8.46728 2.62661C8.12896 2.38671 7.67376 2.42362 7.3785 2.71888L6.59728 3.5001L5.81606 4.28132C5.52695 4.57043 5.49004 5.03178 5.72379 5.3701L6.95406 7.10478C6.99712 7.16629 7.00327 7.24626 6.96636 7.31392C6.57883 7.99672 6.28971 8.72873 6.09287 9.46073C6.07442 9.53455 6.0129 9.58991 5.93294 9.60221L3.86609 9.92823C3.68771 9.95899 3.52777 10.0451 3.40474 10.1681C3.25096 10.3219 3.15869 10.5311 3.15869 10.7587V11.8597V12.9608C3.15869 13.3668 3.45395 13.7236 3.85994 13.7913L5.95754 14.1419C6.03136 14.1542 6.09287 14.2096 6.11133 14.2834C6.32047 15.0215 6.61573 15.7412 7.01557 16.4179C7.05248 16.4855 7.05248 16.5655 7.00942 16.6332L5.80376 18.3309C5.56386 18.6693 5.60077 19.1245 5.89603 19.4197L6.67725 20.2009L6.708 20.2317C6.76337 20.2871 6.84333 20.3055 6.911 20.2809C8.00593 19.8995 8.95324 19.3951 9.56222 19.0445L9.96205 18.8107C10.0543 18.7554 10.0851 18.6447 10.0359 18.5524C9.78367 18.091 9.59913 17.6174 9.46995 17.156C9.4638 17.1253 9.44534 17.0945 9.42074 17.0699C8.83636 16.4732 8.5657 15.5259 8.42422 15.0338C8.19047 14.2096 7.95057 13.01 8.59031 12.1673C8.62107 12.1243 8.63952 12.0689 8.62722 12.0135C8.46728 11.0416 8.48574 10.2296 8.68258 9.46688C8.93478 8.40271 9.4884 7.42465 10.325 6.56961C10.7556 6.11441 11.2354 5.71458 11.7644 5.37626C12.238 5.05024 12.7363 4.79803 13.2407 4.62579C13.2469 4.62579 13.2469 4.62579 13.253 4.61964C13.7144 4.46586 14.1819 4.37359 14.6555 4.34898C14.8401 4.33668 15.0246 4.32438 15.203 4.32438C16.2549 4.32438 17.2268 4.58274 18.0879 5.08714C18.7892 5.47468 19.2505 5.93603 19.5397 6.2928C19.5581 6.31741 19.5827 6.33586 19.6135 6.34816C19.9641 6.50195 20.3885 6.77261 20.7638 7.24626C21.5881 8.29198 21.8403 9.89133 21.5265 12.0074C21.5204 12.0627 21.5327 12.1181 21.5696 12.1612C21.5696 12.1612 21.5696 12.1673 21.5758 12.1673C22.2093 13.01 21.9756 14.2034 21.7418 15.0277C21.6004 15.5259 21.3297 16.4732 20.7453 17.0699C20.7207 17.0945 20.7023 17.1191 20.6961 17.156C20.5546 17.6543 20.3455 18.171 20.0564 18.6754C20.001 18.7738 20.0379 18.8969 20.1425 18.9461L20.2102 18.9768C20.2163 18.9768 20.2225 18.983 20.2225 18.983C20.8314 19.3459 21.8649 19.8995 23.0767 20.3117C23.1443 20.3363 23.2243 20.3178 23.2797 20.2625L23.3781 20.164L24.1593 19.3828C24.4484 19.0937 24.4853 18.6324 24.2516 18.294L23.0213 16.5901C22.9783 16.5286 22.9721 16.4425 23.009 16.381C23.4027 15.6982 23.698 14.9785 23.9009 14.2342C23.9194 14.1603 23.9809 14.105 24.0547 14.0927L26.1339 13.7421C26.3123 13.7113 26.4722 13.6252 26.5952 13.5022C26.749 13.3484 26.8413 13.1392 26.8413 12.9116V11.8105V10.7095C26.8413 10.2973 26.546 9.94669 26.14 9.87902Z" fill="#222222"/>
<path d="M9.64838 14.6955C10.0052 15.9504 10.3373 16.3071 10.5834 16.3256C10.8171 17.8204 11.9674 19.7211 13.862 20.3916C14.6371 20.6684 15.4921 20.6684 16.2672 20.3855C18.1372 19.715 19.3244 17.8142 19.5582 16.3256C19.8104 16.3071 20.1425 15.9504 20.4932 14.6955C20.9791 12.9731 20.4624 12.7209 20.0257 12.764C20.1118 12.5241 20.1733 12.2903 20.2164 12.0566C20.9607 7.60302 18.7646 7.44309 18.7646 7.44309C18.7646 7.44309 18.4017 6.74184 17.4421 6.21282C16.8024 5.83144 15.9043 5.53618 14.7294 5.64075C14.348 5.6592 13.9851 5.73302 13.6467 5.8499C13.2162 5.99753 12.8163 6.21282 12.4595 6.45888C12.0166 6.73569 11.6045 7.08016 11.2354 7.46769C10.6572 8.05822 10.1343 8.82714 9.91289 9.78674C9.7222 10.5003 9.76526 11.2508 9.92519 12.0504C9.96825 12.2842 10.0298 12.5179 10.1159 12.7578C9.67914 12.7209 9.16243 12.9731 9.64838 14.6955Z" fill="#222222"/>
</svg>
