<svg width="30" height="30" viewBox="0 0 30 30" fill="none" xmlns="http://www.w3.org/2000/svg">
<g clip-path="url(#clip0_22_311)">
<path d="M24.7072 20.3695C21.5011 19.1473 19.5848 17.8943 19.5848 17.8943L17.1158 25.7068L16.778 26.7632L15.6725 23.6309C18.2152 20.087 15.4821 19.915 15.003 19.915H14.9969H14.9907H14.9846H14.9784C14.5055 19.9212 11.7724 20.087 14.3151 23.6309L13.2096 26.7632L12.8718 25.7068L10.4027 17.8943C10.4027 17.8943 8.48647 19.1473 5.28041 20.3695C1.74884 21.6532 1.96994 24.5583 1.89624 30H14.9846H15.0153H28.1036C28.0176 24.5583 28.2326 21.6532 24.7072 20.3695Z" fill="#222222"/>
<path d="M8.74437 14.0188C8.42499 14.7006 7.88451 15.5482 7.0185 15.972C6.73597 16.1132 6.79739 16.537 7.11063 16.5861C8.05648 16.7335 9.41383 16.5677 10.6791 15.6096L10.6975 15.6219C13.9097 17.5197 18.1169 17.0836 20.8807 14.3259C24.1605 11.0462 24.1605 5.73344 20.8807 2.45982C17.601 -0.819941 12.2944 -0.819941 9.01461 2.45982C5.85769 5.61675 5.74099 10.6531 8.65838 13.9513L8.74437 14.0188ZM15.2978 3.20913C16.0532 3.21527 16.6551 3.82946 16.649 4.5972C16.6428 5.35265 16.0286 5.97298 15.2916 5.96683C14.53 5.96069 13.9158 5.34036 13.922 4.57877C13.9281 3.81103 14.5423 3.20913 15.2978 3.20913ZM12.6383 6.88197C12.6567 6.73457 12.7489 6.6363 12.9454 6.59945C13.0498 6.58102 13.1542 6.57488 13.2586 6.57488C13.6763 6.57488 14.1001 6.57488 14.5177 6.57488C14.9599 6.57488 15.4083 6.57488 15.8505 6.57488C16.1699 6.57488 16.3603 6.72843 16.3664 7.0478C16.3726 7.3119 16.3296 7.58215 16.2805 7.84625C16.1085 8.82281 15.9242 9.79937 15.7461 10.7759C15.6847 11.1014 15.6233 11.4208 15.5803 11.7463C15.5619 11.8999 15.5864 12.0657 15.6233 12.2193C15.6724 12.4219 15.826 12.5386 16.0348 12.5141C16.2068 12.4956 16.3787 12.4342 16.5446 12.3728C16.6797 12.3237 16.7964 12.2315 16.9315 12.1763C17.128 12.0964 17.2939 12.2377 17.2447 12.4404C17.214 12.5571 17.1403 12.6799 17.0543 12.7659C16.5568 13.2695 15.9611 13.5705 15.2486 13.5766C14.917 13.5828 14.5792 13.5705 14.2536 13.5213C13.707 13.4415 13.013 12.7659 13.1112 12.0412C13.1788 11.5498 13.2525 11.0523 13.3385 10.5671C13.4859 9.71338 13.6394 8.85966 13.7869 8.00594C13.7991 7.95066 13.7991 7.89538 13.7991 7.84011C13.7991 7.48388 13.6886 7.3549 13.3324 7.30576C13.1788 7.28734 13.0253 7.27505 12.884 7.21978C12.6997 7.15836 12.626 7.0171 12.6383 6.88197Z" fill="#222222"/>
</g>
<defs>
<clipPath id="clip0_22_311">
<rect width="30" height="30" fill="white"/>
</clipPath>
</defs>
</svg>
